{"title":"Road House (1948).avi","uid":5876165,"size":714842186,"categoryP":"video","categoryS":"movies","magnet":"?xt=urn:btih:d3f83b804ae669a03a343f77a18e05699c5397b2&amp;dn=Road+House+%281948%29.avi&amp;tr=udp%3A%2F%2Ftracker.openbittorrent.com%3A80&amp;tr=udp%3A%2F%2Fopen.demonii.com%3A1337&amp;tr=udp%3A%2F%2Ftracker.coppersurfer.tk%3A6969&amp;tr=udp%3A%2F%2Fexodus.desync.com%3A6969","seeders":0,"leechers":2,"uploader":"RexRexroth","files":1,"time":1286649044,"description":"Jefty, owner of a roadhouse in a backwoods town, hires sultry, tough-talking torch singer Lily Stevens against the advice of his manager Pete Morgan. Jefty is smitten with Lily, who in turn exerts her charms on the more resistant Pete. When Pete finally falls for her and she turns down Jefty's marriage proposal, they must face Jefty's murderous jealousy and his twisted plots to &quot;punish&quot; the two.\n\n\nIda Lupino                          Lily Stevens\nCornel Wilde                        Pete Morgan\nCeleste Holm                        Susie Smith\nRichard Widmark                     Jefferson (Jefty) Robbins\n\n\n   Video #0\n      ID : 0\n      Format : MPEG-4 Visual\n      Format profile : Simple@L3\n      Format settings, BVOP : No\n      Format settings, QPel : No\n      Format settings, GMC : No warppoints\n      Format settings, Matrix : Default (H.263)\n      Codec ID : XVID\n      Codec ID/Hint : XviD\n      Duration : 1h 34mn\n      Bit rate : 899 Kbps\n      Width : 720 pixels\n      Height : 480 pixels\n      Display aspect ratio : 1.500\n      Frame rate : 29.970 fps\n      Standard : NTSC\n      Resolution : 24 bits\n      Colorimetry : 4:2:0\n      Scan type : Progressive\n      Bits/(Pixel*Frame) : 0.087\n      Stream size : 609 MiB (89%)\n      Writing library : XviD 1.2.1 (UTC 2008-12-04)\n   Audio #1\n      ID : 1\n      Format : MPEG Audio\n      Format version : Version 1\n      Format profile : Layer 3\n      Codec ID : 55\n      Codec ID/Hint : MP3\n      Duration : 1h 34mn\n      Bit rate mode : Variable\n      Bit rate : 93.6 Kbps\n      Channel(s) : 2 channels\n      Sampling rate : 48.0 KHz\n      Resolution : 16 bits\n      Stream size : 63.4 MiB (9%)\n","torrent":{"xt":"urn:btih:d3f83b804ae669a03a343f77a18e05699c5397b2","amp;dn":"Road+House+%281948%29.avi","amp;tr":["udp%3A%2F%2Ftracker.openbittorrent.com%3A80","udp%3A%2F%2Fopen.demonii.com%3A1337","udp%3A%2F%2Ftracker.coppersurfer.tk%3A6969","udp%3A%2F%2Fexodus.desync.com%3A6969"],"infoHash":"d3f83b804ae669a03a343f77a18e05699c5397b2","infoHashBuffer":{"type":"Buffer","data":[211,248,59,128,74,230,105,160,58,52,63,119,161,142,5,105,156,83,151,178]},"announce":[],"urlList":[]}}